<svg width="151" height="43" viewBox="0 0 151 43" fill="none" xmlns="http://www.w3.org/2000/svg">
<path d="M31.9739 39.3894L29.7094 14.4823C29.5393 12.606 27.9469 11.1902 26.0059 11.1902C25.56 11.1902 25.1972 11.5421 25.1972 11.9753V15.8584C25.1972 16.2429 24.8979 16.5786 24.5028 16.603C24.0696 16.63 23.7098 16.2971 23.7098 15.8828V7.49018C23.7098 3.35975 20.2489 0 15.9942 0C11.7395 0 8.27863 3.35975 8.27863 7.49018V11.1902H5.98246C4.04147 11.1902 2.44911 12.606 2.279 14.4823L0.014517 39.3894C-0.176048 41.4943 1.53374 43.3167 3.71896 43.3167H28.2695C30.455 43.3167 32.1645 41.494 31.9739 39.3894ZM11.7181 38.5339H6.32649C5.91571 38.5339 5.58275 38.2106 5.58275 37.8119C5.58275 37.4132 5.91571 37.0899 6.32649 37.0899H11.7181C12.1287 37.0899 12.4618 37.4132 12.4618 37.8119C12.4618 38.2106 12.1287 38.5339 11.7181 38.5339ZM11.7181 34.9241H6.32649C5.91571 34.9241 5.58275 34.6009 5.58275 34.2022C5.58275 33.8035 5.91571 33.4802 6.32649 33.4802H11.7181C12.1287 33.4802 12.4618 33.8035 12.4618 34.2022C12.4618 34.6009 12.1287 34.9241 11.7181 34.9241ZM22.2225 11.1902H12.062C11.6158 11.1902 11.2533 11.5421 11.2533 11.9753V15.8584C11.2533 16.2429 10.954 16.5786 10.5589 16.603C10.1256 16.63 9.76592 16.2971 9.76592 15.8828V7.49018C9.76592 4.1566 12.5603 1.44389 15.9942 1.44389C19.4281 1.44389 22.2225 4.1566 22.2225 7.49018V11.1902Z" fill="#3285A8"/>
<path d="M48.31 35C47.9794 35 47.7168 34.9125 47.5223 34.7374C47.3278 34.5429 47.2111 34.3095 47.1722 34.0372L43.992 15.3938C43.9725 15.3354 43.9628 15.2674 43.9628 15.1896C43.9628 15.0339 44.0212 14.8978 44.1379 14.7811C44.274 14.6449 44.4199 14.5769 44.5755 14.5769H48.1933C48.7379 14.5769 49.0394 14.7908 49.0978 15.2187L50.9942 26.5973L53.0949 19.8869C53.3088 19.3617 53.6298 19.0991 54.0577 19.0991H56.1583C56.6446 19.0991 56.9655 19.3617 57.1211 19.8869L59.2218 26.5973L61.1182 15.2187C61.1766 14.7908 61.4781 14.5769 62.0227 14.5769H65.6405C65.8156 14.5769 65.9614 14.6449 66.0781 14.7811C66.2143 14.8978 66.2824 15.0339 66.2824 15.1896L66.2532 15.3938L63.073 34.0372C63.0341 34.3095 62.9077 34.5429 62.6937 34.7374C62.4992 34.9125 62.2464 35 61.9352 35H59.1635C58.8522 35 58.6091 34.9222 58.4341 34.7666C58.259 34.611 58.1326 34.4359 58.0548 34.2414L55.108 25.8971L52.1612 34.2414C51.9862 34.7471 51.6263 35 51.0817 35H48.31ZM72.9498 35.2918C71.9189 35.2918 70.9755 35.0973 70.1197 34.7082C69.2833 34.2998 68.622 33.7552 68.1357 33.0744C67.6689 32.3742 67.4355 31.6059 67.4355 30.7695C67.4355 29.4274 67.9801 28.3479 69.0694 27.531C70.178 26.714 71.6952 26.15 73.6208 25.8388L77.2678 25.2844V24.876C77.2678 24.1368 77.1122 23.5922 76.801 23.2421C76.4898 22.892 75.9646 22.7169 75.2255 22.7169C74.7781 22.7169 74.4086 22.7947 74.1168 22.9503C73.825 23.106 73.5236 23.3199 73.2123 23.5922C72.94 23.8256 72.7358 23.9812 72.5996 24.059C72.5413 24.2146 72.4343 24.2924 72.2787 24.2924H69.0985C68.904 24.2924 68.7387 24.2341 68.6025 24.1174C68.4858 23.9812 68.4372 23.8256 68.4567 23.6506C68.4761 23.1254 68.729 22.5419 69.2152 21.9C69.721 21.2581 70.4795 20.7038 71.491 20.237C72.5218 19.7702 73.7861 19.5368 75.2838 19.5368C77.6763 19.5368 79.4463 20.0717 80.5939 21.1414C81.7414 22.1918 82.3152 23.6117 82.3152 25.4011V34.2706C82.3152 34.4651 82.2472 34.6402 82.111 34.7958C81.9748 34.9319 81.7998 35 81.5858 35H78.2014C78.0069 35 77.8319 34.9319 77.6763 34.7958C77.5401 34.6402 77.472 34.4651 77.472 34.2706V33.2494C77.0441 33.8524 76.4411 34.3484 75.6631 34.7374C74.9045 35.107 74.0001 35.2918 72.9498 35.2918ZM74.321 31.9657C75.2158 31.9657 75.9354 31.6739 76.48 31.0904C77.0441 30.5069 77.3261 29.6511 77.3261 28.5229V28.1145L74.8462 28.5521C73.0956 28.8633 72.2204 29.476 72.2204 30.3902C72.2204 30.8765 72.4246 31.2655 72.8331 31.5572C73.2415 31.8296 73.7375 31.9657 74.321 31.9657ZM86.3369 35C86.123 35 85.9479 34.9319 85.8118 34.7958C85.6756 34.6596 85.6075 34.4846 85.6075 34.2706V20.5579C85.6075 20.344 85.6756 20.1689 85.8118 20.0328C85.9479 19.8966 86.123 19.8285 86.3369 19.8285H89.6922C89.9061 19.8285 90.0812 19.9063 90.2173 20.0619C90.3729 20.1981 90.4508 20.3634 90.4508 20.5579V21.725C91.5205 20.4607 92.9599 19.8285 94.7688 19.8285H96.0525C96.2665 19.8285 96.4415 19.8966 96.5777 20.0328C96.7138 20.1689 96.7819 20.344 96.7819 20.5579V23.563C96.7819 23.7575 96.7138 23.9326 96.5777 24.0882C96.4415 24.2244 96.2665 24.2924 96.0525 24.2924H93.2225C92.425 24.2924 91.8026 24.5161 91.3552 24.9635C90.9273 25.3914 90.7133 26.0041 90.7133 26.8016V34.2706C90.7133 34.4846 90.6355 34.6596 90.4799 34.7958C90.3438 34.9319 90.1687 35 89.9548 35H86.3369ZM104.429 35.2918C102.717 35.2918 101.336 34.718 100.286 33.5704C99.2357 32.4033 98.7105 30.7792 98.7105 28.698V20.5579C98.7105 20.344 98.7786 20.1689 98.9147 20.0328C99.0509 19.8966 99.2259 19.8285 99.4399 19.8285H103.087C103.301 19.8285 103.476 19.8966 103.612 20.0328C103.768 20.1689 103.845 20.344 103.845 20.5579V28.5229C103.845 30.4291 104.692 31.3822 106.384 31.3822C107.201 31.3822 107.843 31.1293 108.309 30.6236C108.776 30.1179 109.01 29.4177 109.01 28.5229V20.5579C109.01 20.344 109.078 20.1689 109.214 20.0328C109.369 19.8966 109.544 19.8285 109.739 19.8285H113.386C113.6 19.8285 113.775 19.8966 113.911 20.0328C114.047 20.1689 114.115 20.344 114.115 20.5579V34.2706C114.115 34.4651 114.047 34.6402 113.911 34.7958C113.775 34.9319 113.6 35 113.386 35H110.002C109.807 35 109.632 34.9319 109.476 34.7958C109.34 34.6402 109.272 34.4651 109.272 34.2706V33.1619C108.261 34.5818 106.646 35.2918 104.429 35.2918ZM118.277 35C118.063 35 117.888 34.9319 117.751 34.7958C117.615 34.6596 117.547 34.4846 117.547 34.2706V20.5579C117.547 20.344 117.615 20.1689 117.751 20.0328C117.888 19.8966 118.063 19.8285 118.277 19.8285H121.632C121.846 19.8285 122.021 19.8966 122.157 20.0328C122.313 20.1689 122.39 20.344 122.39 20.5579V21.6666C122.916 21.0247 123.587 20.5093 124.404 20.1203C125.24 19.7313 126.183 19.5368 127.234 19.5368C128.945 19.5368 130.336 20.1203 131.406 21.2873C132.476 22.4349 133.01 24.0493 133.01 26.1305V34.2706C133.01 34.4651 132.942 34.6402 132.806 34.7958C132.67 34.9319 132.495 35 132.281 35H128.605C128.41 35 128.235 34.9319 128.08 34.7958C127.944 34.6402 127.875 34.4651 127.875 34.2706V26.3056C127.875 25.3914 127.652 24.6912 127.204 24.2049C126.757 23.6992 126.115 23.4463 125.279 23.4463C124.462 23.4463 123.82 23.6992 123.353 24.2049C122.886 24.6912 122.653 25.3914 122.653 26.3056V34.2706C122.653 34.4651 122.585 34.6402 122.449 34.7958C122.313 34.9319 122.138 35 121.924 35H118.277ZM143.735 41.4187C141.887 41.4187 140.389 41.1172 139.242 40.5142C138.094 39.9113 137.268 39.2208 136.762 38.4428C136.276 37.6647 136.032 37.0131 136.032 36.488C136.032 36.3129 136.11 36.1573 136.266 36.0212C136.421 35.885 136.596 35.8169 136.791 35.8169H140.496C140.691 35.8169 140.837 35.8558 140.934 35.9336C141.051 36.0309 141.158 36.1865 141.255 36.4004C141.449 36.8478 141.712 37.1979 142.043 37.4508C142.373 37.7231 142.889 37.8592 143.589 37.8592C144.484 37.8592 145.145 37.6356 145.573 37.1882C146.001 36.7603 146.215 36.0309 146.215 35V33.0452C145.223 34.1344 143.803 34.6791 141.955 34.6791C139.991 34.6791 138.483 34.1053 137.433 32.9577C136.402 31.7906 135.838 30.1082 135.741 27.9103L135.711 27.1225C135.711 24.769 136.237 22.9212 137.287 21.5791C138.337 20.2175 139.893 19.5368 141.955 19.5368C142.947 19.5368 143.822 19.7313 144.581 20.1203C145.34 20.4898 145.981 20.9956 146.507 21.6374V20.5579C146.507 20.344 146.575 20.1689 146.711 20.0328C146.866 19.8966 147.041 19.8285 147.236 19.8285H150.591C150.805 19.8285 150.98 19.9063 151.116 20.0619C151.272 20.1981 151.35 20.3634 151.35 20.5579V34.5915C151.35 36.8089 150.688 38.5011 149.366 39.6681C148.043 40.8352 146.166 41.4187 143.735 41.4187ZM143.531 30.8862C144.406 30.8862 145.058 30.6236 145.485 30.0984C145.913 29.5538 146.156 28.8731 146.215 28.0561C146.234 27.92 146.244 27.6185 146.244 27.1517C146.244 26.7043 146.234 26.4126 146.215 26.2764C146.176 25.4595 145.933 24.7884 145.485 24.2633C145.058 23.7186 144.406 23.4463 143.531 23.4463C142.616 23.4463 141.955 23.7186 141.547 24.2633C141.138 24.8079 140.915 25.5567 140.876 26.5098L140.846 27.1517C140.846 28.2993 141.041 29.2134 141.43 29.8942C141.819 30.5555 142.519 30.8862 143.531 30.8862Z" fill="#3285A8"/>
</svg>
